# xmcd
# Track frame offsets:
# 165
# 9190
# 19270
# 28197
# 40482
# 49652
# 58847
# 69125
# 80415
# 90202
# 98505
# 107010
# 115142
# 122847
# 129305
# 141777
# 150230
# 162032
# 169332
# 180572
# 188355
# 197540
# 209380
# 218705
# 224365
# 235315
# 245850
# 258892
# 270422
# 279030
# 292495
#
# Disc length: 4026 seconds
# Revision: 0
# Processed by: cddbd v1.4PL0 Copyright (c) Steve Scherf et al.
# Submitted via: VisiTrax 2.9.5.180 - For more info visit www.synapsa.com
#
DISCID=a70fb81f
DTITLE=Eddie Bond - Rockin' Daddu
DYEAR=1992
DGENRE=
TTITLE0=Rockin' daddy
TTITLE1=Big boss man
TTITLE2=Can't win for losing
TTITLE3=When the jukebox plays
TTITLE4=Hey Joe
TTITLE5=Monkey and the baboon
TTITLE6=The blues got me
TTITLE7=Standing in your window
TTITLE8=Look like a memory
TTITLE9=I'll step a side
TTITLE10=Memphis Tennessee
TTITLE11=My bucket's got a hole in it
TTITLE12=Winners circle
TTITLE13=Jukejoint Johnny
TTITLE14=You'll never be a stranger to me
TTITLE15=Boo bop da caa caa
TTITLE16=A heart full of heartaches
TTITLE17=Here comes the train
TTITLE18=Someday I'll sober up
TTITLE19=Double duty lovin'
TTITLE20=Let's make the parting sweet
TTITLE21=Tomorrow I'll be gone
TTITLE22=One more memory
TTITLE23=Country shindig
TTITLE24=When the jukebox plays Part 2
TTITLE25=Raunchy
TTITLE26=Cold dark waters
TTITLE27=Youe eyes
TTITLE28=It's been so long darling
TTITLE29=Your old standbye
TTITLE30=This old heart of mine
EXTD=
EXTT0=
EXTT1=
EXTT2=
EXTT3=
EXTT4=
EXTT5=
EXTT6=
EXTT7=
EXTT8=
EXTT9=
EXTT10=
EXTT11=
EXTT12=
EXTT13=
EXTT14=
EXTT15=
EXTT16=
EXTT17=
EXTT18=
EXTT19=
EXTT20=
EXTT21=
EXTT22=
EXTT23=
EXTT24=
EXTT25=
EXTT26=
EXTT27=
EXTT28=
EXTT29=
EXTT30=
PLAYORDER=
